<svg xmlns="http://www.w3.org/2000/svg" id="E-receipt" enable-background="new 0 0 512 512" height="512" viewBox="0 0 512 512" width="512"><g><g><path d="m395.994 27.045v457.91c0 10.371-8.416 18.787-18.788 18.787h-242.374c-10.371 0-18.787-8.416-18.787-18.787v-457.91c0-2.344.425-4.578 1.214-6.643 1.154-3.061 3.085-5.744 5.55-7.797 3.255-2.72 7.457-4.347 12.023-4.347h242.374c10.372 0 18.788 8.416 18.788 18.787z" fill="#16437d"/><path d="m116 56.245h280v400h-280z" fill="#0e2d55ff"/><path d="m373.527 448.248h-235.06c-3.573 0-6.471-2.896-6.471-6.471v-379.059c0-3.573 2.897-6.47 6.471-6.47h235.06c3.573 0 6.47 2.897 6.47 6.47v379.06c0 3.574-2.896 6.47-6.47 6.47z" fill="#fff"/><path d="m255.998 32.248h-40c-2.209 0-4-1.791-4-4s1.791-4 4-4h40c2.209 0 4 1.791 4 4s-1.791 4-4 4z" fill="#16437d"/><path d="m295.998 32.248h-16c-2.209 0-4-1.791-4-4s1.791-4 4-4h16c2.209 0 4 1.791 4 4s-1.791 4-4 4z" fill="#16437d"/><path d="m388.007 436.195v5.439c0 8.061-6.561 14.609-14.61 14.609h-234.7c-8.06 0-14.609-6.549-14.609-14.609v-5.439c0-2.211 1.79-4 4-4 1.92 0 3.52 1.35 3.909 3.16v6.419c0 3.57 2.9 6.47 6.471 6.47h235.061c3.379 0 6.149-2.6 6.439-5.899.02-.181.029-.37.029-.57.011-.05.011-5.579.011-5.579 0-2.211 1.79-4 4-4s3.999 1.788 3.999 3.999z" fill="#16437d"/></g><path d="m251.707 160.103c-1.493 0-2.951-.515-4.119-1.472l-11.783-9.654c-2.777-2.275-3.184-6.371-.91-9.147 2.276-2.777 6.373-3.184 9.148-.908l6.385 5.232 17.217-24.344c2.072-2.931 6.128-3.627 9.06-1.554 2.931 2.073 3.627 6.129 1.554 9.06l-21.244 30.042c-1.041 1.473-2.647 2.447-4.436 2.688-.291.037-.583.057-.872.057z" fill="#0e2d55ff"/><path d="m274.412 190.14c-1.59 0-3.094-.955-3.719-2.522-.816-2.053.187-4.379 2.239-5.195 5.748-2.286 10.89-5.658 15.282-10.02 1.564-1.557 4.098-1.549 5.656.019 1.557 1.567 1.548 4.1-.02 5.657-5.162 5.128-11.205 9.09-17.962 11.778-.484.192-.984.283-1.476.283z" fill="#009990"/><path d="m255.951 193.657c-29.512 0-53.521-23.776-53.521-53s24.01-53 53.521-53 53.521 23.776 53.521 53c0 7.278-1.464 14.331-4.35 20.962-.883 2.025-3.24 2.954-5.265 2.071-2.025-.882-2.953-3.238-2.071-5.264 2.445-5.617 3.686-11.595 3.686-17.769 0-24.813-20.421-45-45.521-45-25.101 0-45.521 20.187-45.521 45s20.421 45 45.521 45c2.209 0 4 1.791 4 4s-1.791 4-4 4z" fill="#009990"/><g><path d="m155.859 233.354c0-4.421 3.584-8.005 8.005-8.005h184.419c4.42 0 8.004 3.584 8.004 8.005 0 4.421-3.584 8.005-8.004 8.005h-184.419c-4.421 0-8.005-3.584-8.005-8.005z" fill="#0e2d55ff"/><path d="m332.109 225.354v239.65c0 5.97-3.289 11.17-8.149 13.89-2.14 1.2-4.59 1.91-7.19 2-.189.01-.369.01-.56.01-1.5 0-136.18-.09-136.18-.09v-255.46z" fill="#009990"/><path d="m340.109 456.244v8.761c0 12.94-10.129 23.43-23.069 23.87l-.14.01h-.131l-140 .02c-11.6 0-21.029-9.43-21.029-21.02v-11.641h8v11.641c0 7.189 5.83 13.02 13.029 13.02l140-.02c8.521-.301 15.34-7.28 15.34-15.88v-8.761z" fill="#0e2d55ff"/><path d="m180.034 225.354h152.078v8h-152.078z" fill="#0e2d55ff"/><path d="m316.21 480.904h-139.44c-7.199 0-13.029-5.83-13.029-13.02v-51.801c0-1.68 1.83-2.719 3.279-1.869l9.28 5.43c.681.4 1.521.4 2.2 0l11.45-6.71c.68-.39 1.52-.39 2.2 0l11.459 6.71c.681.4 1.521.4 2.201 0l11.449-6.71c.68-.39 1.521-.39 2.2 0l11.45 6.71c.68.4 1.52.4 2.199 0l11.461-6.71c.68-.39 1.52-.39 2.199 0l11.461 6.71c.68.4 1.52.4 2.199 0l11.45-6.71c.681-.39 1.521-.39 2.2 0l11.47 6.72c.681.391 1.521.391 2.2 0l9.29-5.439c1.45-.85 3.27.189 3.27 1.869v48.921c.002 8.79 7.122 15.899 15.902 15.899z" fill="#009990"/><g fill="#fff"><g><path d="m195.91 265.455c-1.051 0-2.09-.431-2.83-1.17-.19-.19-.35-.391-.5-.61-.14-.22-.27-.45-.371-.69-.1-.24-.169-.49-.219-.75-.061-.26-.08-.52-.08-.779s.02-.521.08-.78c.05-.261.119-.511.219-.75.102-.24.231-.47.371-.69.15-.22.31-.42.5-.609.75-.74 1.779-1.17 2.83-1.17 1.049 0 2.08.43 2.83 1.17.74.75 1.17 1.779 1.17 2.83 0 1.049-.43 2.08-1.17 2.83-.75.737-1.781 1.168-2.83 1.168z"/><path d="m295.05 261.455c0-2.211 1.79-4 4-4 2.21 0 4 1.789 4 4 0 2.209-1.79 4-4 4-2.21 0-4-1.791-4-4zm-17.191 0c0-2.211 1.791-4 4-4 2.211 0 4 1.789 4 4 0 2.209-1.789 4-4 4-2.209 0-4-1.791-4-4zm-17.189 0c0-2.211 1.789-4 4-4 2.21 0 4 1.789 4 4 0 2.209-1.79 4-4 4-2.211 0-4-1.791-4-4zm-17.19 0c0-2.211 1.79-4 4-4 2.21 0 4 1.789 4 4 0 2.209-1.79 4-4 4-2.209 0-4-1.791-4-4zm-17.19 0c0-2.211 1.79-4 4-4 2.21 0 4 1.789 4 4 0 2.209-1.79 4-4 4-2.21 0-4-1.791-4-4zm-17.19 0c0-2.211 1.79-4 4-4 2.211 0 4 1.789 4 4 0 2.209-1.789 4-4 4-2.21 0-4-1.791-4-4z"/><path d="m316.24 265.455c-.26 0-.521-.03-.781-.08-.259-.051-.509-.131-.75-.23-.239-.1-.469-.22-.688-.359-.221-.15-.431-.32-.61-.5-.74-.74-1.17-1.781-1.17-2.83 0-.26.02-.521.08-.78.05-.261.12-.511.22-.75.1-.24.23-.47.37-.69.15-.22.32-.42.5-.609.18-.18.39-.351.61-.49.22-.15.449-.27.688-.37.241-.101.491-.181.75-.229 1.301-.261 2.681.16 3.611 1.09.74.75 1.17 1.779 1.17 2.83 0 .26-.031.52-.08.779-.051.26-.13.51-.23.75s-.221.471-.369.69c-.141.22-.311.42-.49.61-.751.737-1.781 1.168-2.831 1.168z"/></g><path d="m225.673 325.479c0-6.6-3.539-10.347-12.7-12.965-6.604-1.916-8.02-3.111-8.02-5.768 0-1.92 1.149-4.168 4.937-4.168 4.665 0 5.404 2.789 5.817 4.501h9.021c-.437-4.995-3.28-9.658-10.845-10.841v-6.898h-7.538v6.942c-5.912 1.114-10.5 5.024-10.5 11.37 0 5.843 3.06 9.721 13.494 12.791 5.677 1.66 7.271 3.115 7.271 6.121 0 2.398-1.346 4.566-5.851 4.566-3.638 0-6.055-1.969-6.741-5.174h-9.018c.481 6.075 4.614 10.422 11.756 11.523v7.905h7.59v-7.911c6.771-1.026 11.327-4.908 11.327-11.994z"/><path d="m315.334 297.252h-68.571c-2.209 0-4-1.791-4-4s1.791-4 4-4h68.571c2.209 0 4 1.791 4 4s-1.791 4-4 4z"/><path d="m315.334 321.205h-68.571c-2.209 0-4-1.791-4-4s1.791-4 4-4h68.571c2.209 0 4 1.791 4 4s-1.791 4-4 4z"/><path d="m283.039 345.719h-36.276c-2.209 0-4-1.791-4-4s1.791-4 4-4h36.276c2.209 0 4 1.791 4 4s-1.791 4-4 4z"/><path d="m315.334 345.719h-15.378c-2.209 0-4-1.791-4-4s1.791-4 4-4h15.378c2.209 0 4 1.791 4 4s-1.791 4-4 4z"/><path d="m315.334 369.672h-68.571c-2.209 0-4-1.791-4-4s1.791-4 4-4h68.571c2.209 0 4 1.791 4 4s-1.791 4-4 4z"/></g></g><path d="m332.112 225.354h7.997v230.89h-7.997z" fill="#0e2d558e"/><path d="m332.112 225.354h7.997v16h-7.997z" fill="#0e2d55ff"/><path d="m332.112 448.248h7.997v7.996h-7.997z" fill="#0e2d55ff"/><path d="m155.74 448.248h7.997v7.996h-7.997z" fill="#0e2d55ff"/><path d="m316.21 472.904c-4.36 0-7.9-3.539-7.9-7.899v-48.921c0-5.609-4.56-10.17-10.17-10.17-1.8 0-3.579.48-5.149 1.4l-6.34 3.71-8.53-4.989c-.021-.021-.04-.03-.06-.041-1.541-.879-3.301-1.35-5.08-1.35-1.78 0-3.541.471-5.08 1.35-.021.011-.041.03-.061.041l-8.51 4.979-8.52-4.979c-.021-.021-.041-.03-.061-.041-1.54-.879-3.3-1.35-5.08-1.35s-3.54.471-5.08 1.35c-.02.011-.04.021-.06.041l-8.521 4.979-8.51-4.979c-.02-.011-.04-.03-.061-.041-1.539-.879-3.3-1.35-5.08-1.35-1.779 0-3.539.471-5.079 1.35-.021.011-.04.03-.061.041l-8.51 4.979-8.521-4.979c-.02-.021-.039-.03-.06-.041-1.54-.879-3.3-1.35-5.08-1.35s-3.54.471-5.08 1.35c-.02.011-.04.03-.06.041l-5.88 3.439v9.27l9.92-5.81c.34-.2.72-.29 1.1-.29s.761.09 1.101.29l11.459 6.71c.341.2.721.301 1.101.301s.76-.101 1.101-.301l11.449-6.71c.34-.2.721-.29 1.1-.29.381 0 .761.09 1.101.29l11.45 6.71c.34.2.72.301 1.1.301s.76-.101 1.1-.301l11.461-6.71c.34-.2.72-.29 1.1-.29s.76.09 1.1.29l11.461 6.71c.34.2.72.301 1.1.301s.76-.101 1.1-.301l11.45-6.71c.34-.2.72-.29 1.101-.29.379 0 .76.09 1.1.29l11.47 6.72c.34.2.72.291 1.101.291.38 0 .76-.091 1.1-.291l9.29-5.439c.35-.21.729-.301 1.1-.301 1.13 0 2.17.9 2.17 2.17v48.921c0 8.79 7.12 15.899 15.9 15.899.19 0 .37 0 .56-.01 2.601-.09 5.051-.8 7.19-2-.902-3.449-4.023-5.99-7.752-5.99z" fill="#fff"/><path d="m379.997 64.245h-248v-1.544c0-3.565 2.891-6.456 6.456-6.456h235.069c3.576 0 6.475 2.899 6.475 6.475z" fill="#009990"/></g></svg>