<?xml version="1.0" encoding="UTF-8"?>
<svg xmlns="http://www.w3.org/2000/svg" id="line" width="512" height="512" viewBox="0 0 64 64"><path d="M52,57V54H20a1,1,0,0,0-1,1v2a6,6,0,0,0,6,6H58A6.00657,6.00657,0,0,1,52,57Z" style="fill:#fff"/><path d="M59,13H29a3,3,0,0,0-3,3V52H52a2,2,0,0,1,2,2v2.82263a4.1207,4.1207,0,0,0,3.60126,4.1579A4.004,4.004,0,0,0,62,57V16A3,3,0,0,0,59,13ZM57,45H39a1,1,0,0,1,0-2H57a1,1,0,0,1,0,2Zm0-7H41a1,1,0,0,1,0-2H57a1,1,0,0,1,0,2Zm0-7H31a1,1,0,0,1,0-2H57a1,1,0,0,1,0,2Zm0-7H48a1,1,0,0,1,0-2h9a1,1,0,0,1,0,2Z" style="fill:#fff"/><path d="M3,22H21a.99943.99943,0,0,0,1-1,10.0101,10.0101,0,0,0-6.30365-9.28339,6,6,0,1,0-7.3927,0A10.0101,10.0101,0,0,0,2,21,.99943.99943,0,0,0,3,22ZM8,7a4,4,0,1,1,4,4A4.004,4.004,0,0,1,8,7Zm4,6a8.0121,8.0121,0,0,1,7.9375,7H4.0625A8.0121,8.0121,0,0,1,12,13Z" style="fill:#151a6a"/><path d="M36,33a5.99129,5.99129,0,0,0-4,10.45953V49a1.00052,1.00052,0,0,0,1.55469.832L36,48.20215,38.44531,49.832A1.00057,1.00057,0,0,0,40,49V43.45953A5.99129,5.99129,0,0,0,36,33Zm2,14.13184L36.55469,46.168a.99746.99746,0,0,0-1.10938,0L34,47.13184V44.65a5.88865,5.88865,0,0,0,4,0ZM36,43a4,4,0,1,1,4-4A4.004,4.004,0,0,1,36,43Z" style="fill:#151a6a"/><path d="M49,15.142V15a4.004,4.004,0,0,0-4-4H22a1,1,0,0,0,0,2H45a2.0026,2.0026,0,0,1,2,2v.142A3.98073,3.98073,0,0,0,47,22.858V23a2.0026,2.0026,0,0,1-2,2H9a4.004,4.004,0,0,0-4,4v.142A3.98073,3.98073,0,0,0,5,36.858V37a4.004,4.004,0,0,0,4,4H24.58594l-2.293,2.293A.99989.99989,0,0,0,23.707,44.707l3.99872-3.99872a1.0041,1.0041,0,0,0,0-1.41662L23.707,35.293A.99989.99989,0,0,0,22.293,36.707L24.58594,39H9a2.0026,2.0026,0,0,1-2-2v-.142A3.98073,3.98073,0,0,0,7,29.142V29a2.0026,2.0026,0,0,1,2-2H45a4.004,4.004,0,0,0,4-4v-.142A3.98073,3.98073,0,0,0,49,15.142ZM8,33a2,2,0,1,1-2-2A2.0026,2.0026,0,0,1,8,33ZM48,21a2,2,0,1,1,2-2A2.0026,2.0026,0,0,1,48,21Z" style="fill:#151a6a"/></svg>
