<svg id="Capa_1" enable-background="new 0 0 512 512" viewBox="0 0 512 512" xmlns="http://www.w3.org/2000/svg"><g><path d="m51.985 45c0-20.71 16.79-37.5 37.5-37.5h333.03c20.71 0 37.5 16.79 37.5 37.5v422c0 20.71-16.79 37.5-37.5 37.5h-333.03c-20.71 0-37.5-16.79-37.5-37.5z" fill="#f5f8f9"/><path d="m460.02 45v422c0 20.71-16.8 37.5-37.5 37.5h-40c20.7 0 37.5-16.79 37.5-37.5v-12.5l-11.271-53.677 11.271-74.276v-281.547c0-20.71-16.8-37.5-37.5-37.5h40c20.7 0 37.5 16.79 37.5 37.5z" fill="#e6edf4"/><g><path d="m422.515 512h-333.03c-24.813 0-45-20.187-45-45v-422c0-24.813 20.187-45 45-45h333.03c24.813 0 45 20.187 45 45v422c0 24.813-20.187 45-45 45zm-333.03-497c-16.542 0-30 13.458-30 30v422c0 16.542 13.458 30 30 30h333.03c16.542 0 30-13.458 30-30v-422c0-16.542-13.458-30-30-30z" fill="#16437d"/></g><path d="m256 204.494s-28.335-4.422-42.51-9.144c-16.103-12.638-26.465-32.275-26.465-54.285 0-38.033 30.942-68.975 68.975-68.975s68.975 30.942 68.975 68.975c0 22.01-10.361 41.648-26.465 54.285-15.5 5.476-42.51 9.144-42.51 9.144z" fill="#16437d"/><g><path d="m91.985 424.5v-127.952c0-5.523 4.477-10 10-10h284.874l20.455 1.711c5.523 0 10 4.477 10 10l-1.129 124.659c0 5.523-4.477 10-10 10l-19.325 1.583h-284.875c-5.523-.001-10-4.478-10-10.001z" fill="#009990"/><path d="m420.02 296.55v127.95c0 5.52-4.48 10-10 10h-25.66c5.52 0 10-4.48 10-10v-23.156l-7.501-42.379 7.501-39.26v-23.155c0-5.53-4.48-10-10-10h25.66c5.52 0 10 4.47 10 10z" fill="#009990"/><g fill="#fff"><path d="m159.541 327.204c4.142 0 7.5-3.358 7.5-7.5s-3.358-7.5-7.5-7.5h-34.4c-4.142 0-7.5 3.358-7.5 7.5v81.64c0 4.142 3.358 7.5 7.5 7.5h34.4c4.142 0 7.5-3.358 7.5-7.5s-3.358-7.5-7.5-7.5h-26.9v-25.82h23.053c4.142 0 7.5-3.358 7.5-7.5s-3.358-7.5-7.5-7.5h-23.053v-25.82z"/><path d="m261.968 341.123c-1.347.511-3.501 1.494-5.955 3.225-.953-3.047-3.797-5.258-7.158-5.258-4.142 0-7.5 3.358-7.5 7.5v54.753c0 4.142 3.358 7.5 7.5 7.5s7.5-3.358 7.5-7.5v-32.627c0-1.427 1.208-5.113 5.734-9.878 2.367-2.491 4.58-3.455 5.201-3.69 3.873-1.47 5.821-5.801 4.351-9.673-1.47-3.873-5.799-5.82-9.673-4.352z"/><path d="m310.324 339.091c-19.231 0-34.876 15.646-34.876 34.876s15.646 34.876 34.876 34.876c19.231 0 34.877-15.646 34.877-34.876s-15.645-34.876-34.877-34.876zm0 54.753c-10.96 0-19.876-8.917-19.876-19.876s8.917-19.876 19.876-19.876 19.877 8.917 19.877 19.876-8.917 19.876-19.877 19.876z"/><path d="m205.038 339.619c-4.811 0-9.292 1.284-13.179 3.695-1.217-2.498-3.773-4.223-6.738-4.223-4.142 0-7.5 3.358-7.5 7.5v54.753c0 4.142 3.358 7.5 7.5 7.5s7.5-3.358 7.5-7.5v-26.426c0-9.813 3.262-20.299 12.417-20.299 3.485 0 10.738 0 10.738 19.349v27.116c0 4.142 3.358 7.5 7.5 7.5s7.5-3.358 7.5-7.5v-27.116c0-29.887-16.126-34.349-25.738-34.349z"/><path d="m361.28 312.204c-4.142 0-7.5 3.358-7.5 7.5v81.64c0 4.142 3.358 7.5 7.5 7.5s7.5-3.358 7.5-7.5v-81.64c0-4.142-3.358-7.5-7.5-7.5z"/><path d="m386.859 312.204c-4.142 0-7.5 3.358-7.5 7.5v81.64c0 4.142 3.358 7.5 7.5 7.5s7.5-3.358 7.5-7.5v-81.64c0-4.142-3.358-7.5-7.5-7.5z"/></g></g><g><path d="m274.13 170.34c-2.228 15.519-32.251 17.872-36.26 0l1.21-.33c2.17-.6 3.67-2.57 3.67-4.82v-24.07h26.5v24.07c0 2.25 1.5 4.22 3.67 4.82z" fill="#ffbc87"/><path d="m298.51 190.81v4.54c-11.72 9.2-26.48 14.69-42.51 14.69s-30.79-5.49-42.51-14.69v-4.54c0-2.41.48-4.77 1.39-6.95.92-2.18 2.26-4.18 3.97-5.88 2.19-2.17 4.9-3.74 7.88-4.56l11.14-3.08c8.18 13.62 28.08 13.62 36.26 0l11.14 3.08c2.98.82 5.69 2.39 7.88 4.56 3.43 3.39 5.36 8.01 5.36 12.83z" fill="#e6edf4"/></g><path d="m244.988 152.093 3.08 1.749c4.919 2.793 10.945 2.793 15.864 0l3.08-1.749c8.451-4.798 13.673-13.766 13.673-23.484v-6.859c0-9.702-5.692-18.502-14.541-22.481-6.452-2.901-13.836-2.901-20.288 0-8.849 3.978-14.541 12.778-14.541 22.481v6.859c0 9.717 5.222 18.686 13.673 23.484z" fill="#fed2a5"/><g fill="#16437d81"><path d="m268.251 45h-50.004c-4.142 0-7.5-3.358-7.5-7.5s3.358-7.5 7.5-7.5h50.004c4.142 0 7.5 3.358 7.5 7.5s-3.358 7.5-7.5 7.5z"/><circle cx="293.75" cy="37.504" r="7.5"/></g><g><g><path d="m359.375 255.661h-206.75c-4.142 0-7.5-3.358-7.5-7.5s3.358-7.5 7.5-7.5h206.751c4.142 0 7.5 3.358 7.5 7.5s-3.358 7.5-7.501 7.5z" fill="#16437d81"/></g><g><path d="m298.869 482.003h-83.513c-4.142 0-7.5-3.358-7.5-7.5s3.358-7.5 7.5-7.5h83.513c4.142 0 7.5 3.358 7.5 7.5s-3.358 7.5-7.5 7.5z" fill="#16437d81"/></g></g></g><g/><g/><g/><g/><g/><g/><g/><g/><g/><g/><g/><g/><g/><g/><g/></svg>