<svg xmlns="http://www.w3.org/2000/svg" viewBox="0 0 32 32"><g id="Color"><path d="m29 16h-8.5900269c-.2599487 0-.5199585.1099854-.6999512.289978l-1.4200439 1.4199829c-.1799927.1800537-.289978.4400024-.289978.7000122v1.5900269c.5499878 0 1 .4500122 1 1s-.4500122 1-1 1v7c0 .5499878.4500122 1 1 1h10c.5499878 0 1-.4500122 1-1v-12c0-.5499878-.4500122-1-1-1zm-2 11h-6v-2h6z" fill="#16437d" fill-rule="evenodd"/><path d="m21 25h6v2h-6z" fill="#009990"/><g fill-rule="evenodd"><path d="m18 23.4799805v4.1699829c-4.2399902 1-8.8900146-.1499634-12.1900024-3.4599609v-2.8300171h2.8300171c2.5299683 2.539978 6.2000122 3.25 9.3599854 2.1199951z" fill="#009990"/><path d="m27.960022 16h-4.0200195c.2999878-2.6199951-.5599976-5.3500366-2.5800171-7.3599854h2.8300171v-2.8300171c2.789978 2.789978 4.0499878 6.539978 3.7700195 10.1900024z" fill="#009990"/><path d="m24.1900024 5.8099976v2.8300171h-2.8300171c-3.5100098-3.5200195-9.2099609-3.5200195-12.7199707 0-3.5200195 3.5099487-3.5200195 9.2099609 0 12.7199707h-2.8300171v2.8300171c-5.080017-5.0700074-5.080017-13.3099976.0000001-18.3800049 5.0700073-5.0800171 13.3099975-5.0800171 18.3800048 0z" fill="#16437d"/><path d="m23.9400024 16h-3.5300293c-.2599487 0-.5199585.1099854-.6999512.289978l-1.4200439 1.4199829c-.1799927.1800537-.289978.4400024-.289978.7000122v1.5900269c.5499878 0 1 .4500122 1 1s-.4500122 1-1 1v1.4799805c-3.1599731 1.1300049-6.8300171.4199829-9.3599854-2.1199951-3.5200195-3.5100098-3.5200195-9.210022 0-12.7199707 3.5100098-3.5200195 9.2099609-3.5200195 12.7199707 0 2.0200195 2.0099487 2.8800049 4.7399902 2.5800171 7.3599854z" fill="#f2f2f2"/></g></g><g id="Line" fill-rule="evenodd"><path d="m29 15.5h-8.5898438c-.3916016 0-.7753906.1591797-1.0537109.4365234l-1.4194336 1.4189453c-.277832.2773438-.4370117.6621094-.4370117 1.0546875v1.5898438c0 .2763672.2236328.5.5.5.2758789 0 .5.2246094.5.5s-.2241211.5-.5.5c-.2763672 0-.5.2236328-.5.5v7c0 .8271484.6728516 1.5 1.5 1.5h10c.8271484 0 1.5-.6728516 1.5-1.5v-12c0-.8271484-.6728516-1.5-1.5-1.5zm.5 13.5c0 .2753906-.2241211.5-.5.5h-10c-.2758789 0-.5-.2246094-.5-.5v-6.5859375c.5820312-.2060547 1-.7617188 1-1.4140625s-.4179688-1.2080078-1-1.4140625v-1.1757812c0-.125.0546875-.2578125.1435547-.3466797l1.4194336-1.4189453c.0893555-.0888672.222168-.1445312.347168-.1445312h8.5898438c.2758789 0 .5.2246094.5.5v12z" fill="#fff"/><path d="m27 17.5c-.2763672 0-.5.2236328-.5.5v1c0 .2763672.2236328.5.5.5s.5-.2236328.5-.5v-1c0-.2763672-.2236328-.5-.5-.5z" fill="#fff"/><path d="m25 19.5c.2763672 0 .5-.2236328.5-.5v-1c0-.2763672-.2236328-.5-.5-.5s-.5.2236328-.5.5v1c0 .2763672.2236328.5.5.5z" fill="#fff"/><path d="m23 19.5c.2763672 0 .5-.2236328.5-.5v-1c0-.2763672-.2236328-.5-.5-.5s-.5.2236328-.5.5v1c0 .2763672.2236328.5.5.5z" fill="#fff"/><path d="m21 19.5c.2763672 0 .5-.2236328.5-.5v-1c0-.2763672-.2236328-.5-.5-.5s-.5.2236328-.5.5v1c0 .2763672.2236328.5.5.5z" fill="#fff"/><path d="m27 24.5h-6c-.2763672 0-.5.2236328-.5.5v2c0 .2763672.2236328.5.5.5h6c.2763672 0 .5-.2236328.5-.5v-2c0-.2763672-.2236328-.5-.5-.5zm-.5 2h-5v-1h5z" fill="#fff"/><path d="m15.9804688 27.4619141c-3.5863037.2858276-7.0993652-.9920044-9.6728516-3.4949951v-2.1026611h2.144165c1.7733154 1.7009888 4.0913086 2.6357422 6.520874 2.6357422.362793 0 .7280273-.0205078 1.09375-.0625.2744141-.03125.4716797-.2792969.4399414-.5537109-.0307617-.2744141-.2875977-.4697266-.5532227-.4404297-2.140564.2496948-4.2402954-.3293457-5.9437866-1.5791016h.0409546c.2763672 0 .5-.2236328.5-.5s-.2236328-.5-.5-.5h-1.1859131c-1.5220337-1.5861206-2.3643799-3.6589966-2.3643799-5.8642578 0-2.2695312.8857422-4.4033203 2.4941406-6.0068359 1.6030273-1.6074219 3.7358398-2.4931641 6.0058594-2.4931641 1.8220825 0 3.5504761.5792236 4.993042 1.6357422h-.043335c-.2763672 0-.5.2236328-.5.5s.2236328.5.5.5h1.1879272c1.3062134 1.3649292 2.1055298 3.0620728 2.3052368 4.9277344.0297852.2744141.2758789.4765625.550293.4433594.2744141-.0292969.4731445-.2753906.4438477-.5507812-.1907959-1.7827148-.8736572-3.4267578-1.9768066-4.8203125h1.7321777c.2763672 0 .5-.2236328.5-.5v-1.5176392c1.6056519 1.9688721 2.5817261 4.3908691 2.769043 6.9483032.019043.2636719.2382812.4638672.4980469.4638672.012207 0 .0244141 0 .0371094-.0009766.2753906-.0205078.4824219-.2597656.4619141-.5351562-.230957-3.1541138-1.5705566-6.1165771-3.7661133-8.3762817v-1.2243042c0-.2763672-.2236328-.5-.5-.5s-.5.2236328-.5.5v.2848511c-4.6885986-3.9434206-11.6540527-4.246094-16.6679687-.5719607-.2226562.1630859-.2709961.4755859-.1079102.6992188.1630859.2207031.4760742.2695312.6987305.1074219 4.87854-3.5734253 11.7506714-3.0808716 16.0771484 1.1189575v2.1036987h-2.1438599c-1.772644-1.6972046-4.0859985-2.6357422-6.5485229-2.6357422-2.5375977 0-4.921875.9892578-6.7128906 2.7851562-1.7973633 1.7929688-2.7871094 4.1777344-2.7871094 6.7148438 0 2.1564331.7213135 4.1990356 2.0386353 5.8642578h-1.7310181c-.2763672 0-.5.2236328-.5.5v1.5157471c-3.5204468-4.3393555-3.7523193-10.6826172-.3945312-15.2637939.1630859-.2226562.1147461-.5361328-.1079102-.6992188-.222168-.1630859-.534668-.1142578-.6987305.1074219-3.8585815 5.2655029-3.3271484 12.6842041 1.2011719 17.356018v1.2260132c0 .2763672.2236328.5.5.5s.5-.2236328.5-.5v-.2896118c2.4276733 2.0530396 5.4943237 3.1841431 8.6796875 3.1841431.3564453 0 .7138672-.0146484 1.0722656-.0429688.2753906-.0214844.4804688-.2626953.4589844-.5371094-.0219727-.2753906-.2587891-.4765625-.5380859-.4589844z" style="&#10;    fill: white;&#10;" fill="#fff"/><path d="m15 11.5c-.2763672 0-.5.2236328-.5.5v3c0 .1328125.0527344.2597656.1464844.3535156l1 1c.0976562.0976562.2255859.1464844.3535156.1464844s.2558594-.0488281.3535156-.1464844c.1953125-.1953125.1953125-.5117188 0-.7070312l-.8535156-.8535156v-2.7929688c0-.2763672-.2236328-.5-.5-.5z" fill="#009990"/><path d="m5.4540405 5.4540405c-.1952515.1952515-.1952515.5118408 0 .7070923s.5118408.1952515.7071533 0c.1952515-.1952515.1952515-.5118408 0-.7070923-.1953125-.1952515-.5119019-.1952515-.7071533 0z" fill="#fff"/></g></svg>